<?xml version="1.0" encoding="UTF-8"?>
<svg id="Layer_1" data-name="Layer 1" xmlns="http://www.w3.org/2000/svg" viewBox="0 0 1000 229">
  <defs>
    <style>
      .cls-1 {
        fill: #f0f0f0;
      }
    </style>
  </defs>
  <path class="cls-1" d="M300.96,99.81c10.92,0,20.25,2.23,27.98,6.68,7.73,4.46,13.65,10.51,17.77,18.15,4.12,7.65,6.18,16.35,6.18,26.09,0,1.85-.09,3.74-.25,5.67-.17,1.93-.5,3.66-1.01,5.17h-75.12c.17,18.15,3.4,31.22,9.71,39.2,6.3,7.98,15.67,11.97,28.11,11.97,8.4,0,15.21-1.34,20.42-4.03,5.21-2.69,10.08-6.64,14.62-11.85l2.52,2.27c-5.21,9.24-12.14,16.47-20.8,21.68-8.66,5.21-19.03,7.81-31.13,7.81s-22.52-2.56-31.76-7.69c-9.24-5.13-16.47-12.48-21.68-22.06-5.21-9.58-7.82-21.01-7.82-34.28s3.03-25.5,9.08-35.17c6.05-9.66,13.82-17.02,23.32-22.06,9.49-5.04,19.45-7.56,29.87-7.56ZM300.2,104.86c-4.88,0-9.04,1.47-12.48,4.41-3.45,2.94-6.14,8.15-8.07,15.63-1.93,7.48-2.99,18.02-3.15,31.64h43.11c1.68-18.32,1.01-31.51-2.02-39.58s-8.82-12.1-17.39-12.1Z"/>
  <path class="cls-1" d="M420.95,225.61l-44.62-107.14c-2.36-5.71-6.39-9.49-12.1-11.34l-3.53-1.01v-2.52h65.29v2.52l-4.54,1.01c-6.55,1.68-8.57,6.05-6.05,13.11l26.47,70.33,24.7-69.83c1.34-3.36,1.68-6.13,1.01-8.32-.67-2.18-2.69-3.78-6.05-4.79l-6.3-1.51v-2.52h36.55v2.52l-7.31,1.76c-3.19.84-5.67,2.1-7.44,3.78-1.76,1.68-3.24,4.2-4.41,7.56l-37.06,106.38h-14.62Z"/>
  <path class="cls-1" d="M498.59,224.85v-2.52l3.53-1.01c3.36-1.01,5.67-2.52,6.93-4.54,1.26-2.02,1.89-4.7,1.89-8.07v-78.9c0-3.53-.63-6.18-1.89-7.94-1.26-1.77-3.57-2.98-6.93-3.66l-3.53-.76v-2.52l46.13-14.87,2.52,2.52-.76,35.8v70.59c0,3.36.63,6.05,1.89,8.07s3.49,3.53,6.68,4.54l2.52.76v2.52h-58.99ZM528.34,86.7c-5.72,0-10.55-1.8-14.5-5.42-3.95-3.61-5.92-8.19-5.92-13.74s1.97-10.34,5.92-13.87c3.95-3.53,8.78-5.29,14.5-5.29s10.5,1.76,14.37,5.29c3.86,3.53,5.8,8.15,5.8,13.87s-1.93,10.13-5.8,13.74c-3.87,3.62-8.66,5.42-14.37,5.42Z"/>
  <path class="cls-1" d="M569.43,224.85v-4.03l68.82-112.18h-38.07c-4.37,0-7.81,1.18-10.34,3.53-2.52,2.36-4.88,5.46-7.06,9.33l-9.08,16.89h-2.52l1.77-34.79h100.84v3.53l-67.31,112.68h39.58c5.38,0,9.33-1.26,11.85-3.78,2.52-2.52,4.87-5.96,7.06-10.34l8.82-18.65h2.52l-2.27,37.81h-104.62Z"/>
  <path class="cls-1" d="M686.65,224.85v-4.03l68.82-112.18h-38.07c-4.37,0-7.81,1.18-10.34,3.53-2.52,2.36-4.88,5.46-7.06,9.33l-9.08,16.89h-2.52l1.77-34.79h100.84v3.53l-67.31,112.68h39.58c5.38,0,9.33-1.26,11.85-3.78s4.87-5.96,7.06-10.34l8.82-18.65h2.52l-2.27,37.81h-104.62Z"/>
  <path class="cls-1" d="M803.62,224.85v-2.52l3.53-1.01c3.36-1.01,5.67-2.52,6.93-4.54,1.26-2.02,1.89-4.7,1.89-8.07v-78.9c0-3.53-.63-6.18-1.89-7.94-1.26-1.77-3.57-2.98-6.93-3.66l-3.53-.76v-2.52l46.13-14.87,2.52,2.52-.76,35.8v70.59c0,3.36.63,6.05,1.89,8.07s3.49,3.53,6.68,4.54l2.52.76v2.52h-58.99ZM833.37,86.7c-5.72,0-10.55-1.8-14.5-5.42-3.95-3.61-5.92-8.19-5.92-13.74s1.97-10.34,5.92-13.87c3.95-3.53,8.78-5.29,14.5-5.29s10.5,1.76,14.37,5.29c3.86,3.53,5.8,8.15,5.8,13.87s-1.93,10.13-5.8,13.74c-3.87,3.62-8.66,5.42-14.37,5.42Z"/>
  <path class="cls-1" d="M937.48,228.63c-12.77,0-23.87-2.65-33.28-7.94-9.41-5.29-16.68-12.81-21.81-22.56-5.13-9.74-7.69-21.18-7.69-34.28s2.73-24.45,8.19-34.03c5.46-9.58,12.94-16.97,22.44-22.18,9.49-5.21,20.21-7.81,32.14-7.81s22.6,2.56,32.02,7.69c9.41,5.13,16.85,12.48,22.31,22.06,5.46,9.58,8.19,21.01,8.19,34.28s-2.56,24.75-7.69,34.41c-5.13,9.67-12.35,17.14-21.68,22.44-9.33,5.29-20.38,7.94-33.15,7.94ZM937.48,223.59c5.88,0,10.59-1.68,14.12-5.04,3.53-3.36,6.09-9.33,7.69-17.9,1.6-8.57,2.39-20.67,2.39-36.3s-.8-27.98-2.39-36.55c-1.6-8.57-4.16-14.53-7.69-17.9-3.53-3.36-8.24-5.04-14.12-5.04s-10.63,1.68-14.24,5.04c-3.62,3.36-6.22,9.33-7.81,17.9-1.6,8.57-2.39,20.76-2.39,36.55s.8,27.73,2.39,36.3c1.59,8.57,4.2,14.54,7.81,17.9,3.61,3.36,8.36,5.04,14.24,5.04Z"/>
  <path class="cls-1" d="M234.82,220.09c-4.31-1.81-7.77-3.91-10.37-6.29-2.61-2.38-4.93-5.5-6.97-9.35l-47.28-93.87c16.1-5.44,27.89-13.15,35.37-23.13,7.48-9.98,11.22-19.95,11.22-29.93,0-17.91-7.14-31.91-21.43-42.01C181.08,5.42,160.55.37,133.8.37H36.52v3.4l7.82,3.06c4.3,1.59,7.08,3.69,8.33,6.29,1.24,2.61,1.87,6.18,1.87,10.71v109.87c5.34-7.94,22.55-27.38,49.9-46.13.78-.46,10.49-6.11,10.26-6.48-.18-.28-1.43-1.18-3.75-.63-1.67.39-4.68,2.04-6.07,2.72V7.17h18.03c16.1,0,27.55,4.25,34.35,12.75,6.8,8.5,10.2,21.49,10.2,38.94,0,7.89-.77,14.87-2.29,20.98,9.16,2.31,10.55,6.44,10.55,6.44,0,0-40.46,8.79-72.31,39.52-22.26,21.48-41.91,59.23-41.91,59.23l-22.31-21.85H0s17.59,17.89,25.96,28.4c11.57,14.55,22.83,33.26,22.83,33.26l22.72-.02s5.56-39.7,33.39-74.76c7.77-9.8,16.33-19.23,25.49-27.33l47.97,102.1h60.88v-3.06l-4.42-1.7Z"/>
</svg>