<?xml version="1.0" encoding="UTF-8"?>
<svg id="Layer_1" data-name="Layer 1" xmlns="http://www.w3.org/2000/svg" viewBox="0 0 500 500">
  <defs>
    <style>
      .cls-1 {
        fill: #f0f0f0;
      }
    </style>
  </defs>
  <path class="cls-1" d="M387.01,0H112.99C50.59,0,0,50.59,0,112.99v274.02c0,62.4,50.59,112.99,112.99,112.99h274.02c62.4,0,112.99-50.59,112.99-112.99V112.99c0-62.4-50.59-112.99-112.99-112.99ZM419.17,408.74h-86.1l-67.85-144.4c-12.97,11.46-25.06,24.8-36.06,38.65-39.35,49.58-47.22,105.72-47.22,105.72l-32.13.02s-15.92-26.47-32.28-47.04c-11.83-14.87-36.71-40.17-36.71-40.17h55.45l31.56,30.9s27.78-53.38,59.27-83.76c45.04-43.46,102.26-55.9,102.26-55.9,0,0-1.98-5.84-14.93-9.11,2.15-8.64,3.24-18.52,3.24-29.67,0-24.69-4.81-43.05-14.43-55.08-9.62-12.03-25.82-18.04-48.58-18.04h-25.49v107.51c1.97-.96,6.22-3.28,8.58-3.84,3.29-.78,5.06.48,5.31.88.33.52-13.41,8.51-14.51,9.16-38.68,26.52-63.02,54.01-70.57,65.24V124.45c0-6.41-.89-11.46-2.65-15.15-1.77-3.68-5.7-6.65-11.78-8.9l-11.06-4.33v-4.81h137.57c37.84,0,66.86,7.14,87.07,21.41,20.2,14.27,30.3,34.08,30.3,59.41,0,14.12-5.29,28.22-15.87,42.33-10.58,14.11-27.26,25.01-50.03,32.71l66.86,132.76c2.89,5.46,6.17,9.86,9.86,13.23,3.68,3.37,8.58,6.34,14.67,8.9l6.25,2.41v4.33Z"/>
</svg>